<?xml version="1.0" standalone="no"?>
<!DOCTYPE svg PUBLIC "-//W3C//DTD SVG 20010904//EN"
 "http://www.w3.org/TR/2001/REC-SVG-20010904/DTD/svg10.dtd">
<svg version="1.0" xmlns="http://www.w3.org/2000/svg"
 width="425.000000pt" height="425.000000pt" viewBox="0 0 425.000000 425.000000"
 preserveAspectRatio="xMidYMid meet">
<metadata>
Created by potrace 1.14, written by Peter Selinger 2001-2017
</metadata>
<g transform="translate(0.000000,425.000000) scale(0.100000,-0.100000)"
fill="#000000" stroke="none">
<path d="M1938 4245 c-2 -1 -30 -5 -63 -9 -33 -3 -71 -8 -85 -11 -13 -3 -42
-7 -64 -11 -22 -3 -80 -16 -130 -29 -445 -116 -850 -378 -1131 -730 -242 -304
-411 -707 -452 -1080 -11 -93 -10 -445 1 -515 5 -30 10 -65 11 -77 10 -77 53
-245 91 -355 248 -713 852 -1240 1589 -1388 55 -10 132 -23 170 -27 136 -15
566 -6 596 13 4 2 24 6 44 9 21 2 45 7 55 10 10 3 28 8 40 10 55 11 182 49
269 82 627 233 1114 768 1294 1418 25 88 46 183 53 234 1 14 7 53 11 86 10 77
10 408 0 500 -60 541 -350 1063 -782 1410 -167 135 -444 288 -630 349 -82 28
-247 72 -300 80 -167 28 -236 34 -412 34 -95 0 -174 -2 -175 -3z m322 -598
c448 -37 836 -288 1087 -702 44 -73 133 -286 133 -319 0 -17 -505 -19 -519 -2
-4 6 -16 34 -25 62 -69 212 -344 410 -611 440 -22 3 -46 7 -53 9 -18 7 -229 7
-282 0 -342 -42 -615 -231 -755 -520 -196 -406 -119 -927 180 -1228 150 -151
347 -243 585 -273 66 -8 231 -8 280 1 125 21 160 29 224 52 213 76 363 214
439 403 l26 65 252 0 c173 0 253 -3 256 -11 13 -33 -103 -284 -194 -422 -75
-112 -252 -290 -363 -363 -177 -118 -387 -201 -565 -225 -27 -3 -59 -8 -70
-10 -26 -5 -279 -5 -326 1 -104 11 -135 16 -149 19 -8 3 -31 7 -50 10 -63 9
-242 66 -324 104 -484 218 -773 635 -841 1217 -13 109 -8 326 10 428 3 15 7
37 9 50 122 692 653 1162 1371 1213 49 4 91 7 92 8 3 2 121 -2 183 -7z m1622
-1306 c3 0 6 -106 6 -234 l0 -234 -809 0 -809 0 -1 26 c-1 33 0 341 0 401 l1
45 803 -1 c441 -1 805 -2 809 -3z"/>
</g>
</svg>
